<?xml version="1.0" encoding="iso-8859-1"?>
<!-- Generator: Adobe Illustrator 19.0.0, SVG Export Plug-In . SVG Version: 6.00 Build 0)  -->
<svg version="1.1" id="Capa_1" xmlns="http://www.w3.org/2000/svg" xmlns:xlink="http://www.w3.org/1999/xlink" x="0px" y="0px"
	 viewBox="0 0 512 512" style="enable-background:new 0 0 512 512;" xml:space="preserve">
<circle style="fill:#FF9451;" cx="256" cy="256" r="256"/>
<path style="fill:#F7674F;" d="M506.176,310.454l-250.2-250.201L262,264.317l-154.931,144.12l98.605,98.605
	C221.948,510.286,238.773,512,256,512C378.696,512,481.213,425.676,506.176,310.454z"/>
<rect x="107.07" y="223.26" style="fill:#0074A3;" width="297.86" height="185.18"/>
<rect x="255.95" y="223.26" style="fill:#005C83;" width="148.98" height="185.18"/>
<polygon style="fill:#008CC3;" points="404.931,408.437 256,272.172 107.069,408.437 "/>
<polygon style="fill:#0074A3;" points="256,272.172 255.952,272.216 255.952,408.437 404.931,408.437 "/>
<polygon style="fill:#005C83;" points="107.069,223.257 255.952,359.478 404.931,223.257 "/>
<polygon style="fill:#00263F;" points="404.931,223.256 255.952,223.256 255.952,359.478 255.952,359.478 "/>
<polygon style="fill:#FFFFFF;" points="178.3,264.317 255.976,60.254 333.663,264.312 "/>
<g>
	<polygon style="fill:#E0E0E0;" points="255.976,60.254 255.952,60.315 255.952,264.315 333.663,264.312 	"/>
	<polygon style="fill:#E0E0E0;" points="231.087,264.316 255.976,60.253 280.875,264.315 255.952,290.817 	"/>
</g>
<polygon style="fill:#C0C0C0;" points="280.875,264.314 255.976,60.253 255.952,60.444 255.952,290.817 255.952,290.817 "/>
<g>
</g>
<g>
</g>
<g>
</g>
<g>
</g>
<g>
</g>
<g>
</g>
<g>
</g>
<g>
</g>
<g>
</g>
<g>
</g>
<g>
</g>
<g>
</g>
<g>
</g>
<g>
</g>
<g>
</g>
</svg>
